<?xml version="1.0" encoding="UTF-8" standalone="no"?>
<!-- Created with Inkscape (http://www.inkscape.org/) -->

<svg
   width="499.27264"
   height="144.35588"
   viewBox="0 0 132.09922 38.194161"
   version="1.1"
   id="svg1"
   inkscape:version="1.3.2 (091e20ef0f, 2023-11-25)"
   sodipodi:docname="toxic.svg"
   inkscape:export-filename="toxic.png"
   inkscape:export-xdpi="96"
   inkscape:export-ydpi="96"
   xml:space="preserve"
   xmlns:inkscape="http://www.inkscape.org/namespaces/inkscape"
   xmlns:sodipodi="http://sodipodi.sourceforge.net/DTD/sodipodi-0.dtd"
   xmlns="http://www.w3.org/2000/svg"
   xmlns:svg="http://www.w3.org/2000/svg"><sodipodi:namedview
     id="namedview1"
     pagecolor="#ffffff"
     bordercolor="#000000"
     borderopacity="0.25"
     inkscape:showpageshadow="2"
     inkscape:pageopacity="0.0"
     inkscape:pagecheckerboard="0"
     inkscape:deskcolor="#d1d1d1"
     inkscape:document-units="px"
     inkscape:zoom="1.3487514"
     inkscape:cx="184.24448"
     inkscape:cy="78.96192"
     inkscape:window-width="1680"
     inkscape:window-height="981"
     inkscape:window-x="0"
     inkscape:window-y="0"
     inkscape:window-maximized="1"
     inkscape:current-layer="layer1" /><defs
     id="defs1" /><g
     inkscape:label="Layer 1"
     inkscape:groupmode="layer"
     id="layer1"
     transform="translate(-47.076979,-136.2725)"><path
       style="fill:#be6f3d;fill-opacity:1"
       d="m 162.53717,172.12892 c -3.42617,-0.92141 -6.78661,-3.65118 -8.14361,-6.61526 -0.55404,-1.21018 -0.70927,-2.02994 -0.81775,-4.31859 -0.14706,-3.10281 0.1881,-4.7891 1.44893,-7.28978 1.43758,-2.85127 4.25351,-5.68841 7.1991,-7.25332 2.77569,-1.47465 6.85825,-2.15603 9.80861,-1.63706 3.61639,0.63614 7.14375,3.16818 7.14375,5.12799 0,0.55033 -0.19922,1.07124 -0.5211,1.36253 -0.8797,0.79612 -2.34106,0.63544 -4.79647,-0.52739 -1.95048,-0.92372 -2.45014,-1.05121 -4.07514,-1.0398 -2.3663,0.0166 -4.33326,0.88117 -6.35503,2.79328 -4.87302,4.6087 -4.44182,12.87865 0.74467,14.28181 2.03114,0.5495 3.86684,0.17437 7.10916,-1.4528 1.62207,-0.81405 3.23425,-1.48008 3.58262,-1.48008 0.97214,0 2.18793,0.74169 2.4815,1.51384 0.41549,1.09283 0.0413,2.06431 -1.25559,3.25974 -3.10329,2.86051 -9.41959,4.38668 -13.55365,3.27489 z"
       id="path4"
       sodipodi:nodetypes="sssssssssssssssss" /><path
       d="m 143.6463,172.54527 c -0.99119,-0.81947 -1.17124,-2.92132 -1.19559,-13.95677 -0.0223,-10.08543 -0.01,-10.34714 0.55705,-11.57414 0.34563,-0.74833 0.85566,-1.38107 1.26276,-1.56655 0.93298,-0.4251 2.46768,-0.009 3.09775,0.84087 0.7625,1.02792 1.03431,4.49391 1.08906,13.88732 0.0524,8.98855 -0.12441,10.82649 -1.16923,12.15475 -0.44006,0.55945 -0.75506,0.67754 -1.80735,0.67754 -0.82397,0 -1.47234,-0.16365 -1.83445,-0.46302 z m -1.27741,-31.01513 c -1.46338,-0.89226 -1.49499,-3.01072 -0.0654,-4.3804 0.66882,-0.64077 1.05686,-0.77642 2.4441,-0.85445 1.29744,-0.073 1.82659,0.0188 2.48168,0.43029 1.1513,0.72326 1.57337,2.05725 1.04841,3.31365 -0.21669,0.51862 -0.7881,1.18323 -1.2698,1.47691 -1.18028,0.7196 -3.47045,0.72651 -4.63903,0.014 z"
       style="fill:#ac4f4f;fill-opacity:1"
       id="path1-43" /><path
       d="m 104.12491,173.88237 c -1.18605,-0.59687 -1.5703,-1.33026 -1.28744,-2.45725 0.17771,-0.70804 5.30779,-5.75876 10.22845,-10.07021 1.81398,-1.58939 3.46534,-3.04076 3.6697,-3.22527 0.31849,-0.28757 0.31422,-0.42276 -0.0299,-0.94666 -0.22081,-0.33615 -1.9186,-2.27805 -3.77287,-4.31535 -5.95613,-6.54401 -6.84411,-8.26829 -4.93017,-9.57341 1.15077,-0.78471 2.74657,-0.80584 3.99577,-0.0529 0.50932,0.30698 3.02683,2.7128 5.59446,5.34625 4.31878,4.42948 4.7052,4.75949 5.15938,4.40628 0.27002,-0.21 1.97923,-1.64535 3.79824,-3.18967 4.56763,-3.87788 6.05665,-4.96895 7.21296,-5.28528 0.81873,-0.22398 1.20188,-0.18087 2.16019,0.24303 0.64071,0.28342 1.29778,0.76355 1.46017,1.06697 0.60647,1.1332 -0.83815,2.88984 -6.93072,8.42769 -2.06102,1.87337 -3.63802,3.50998 -3.63802,3.77554 0,0.25782 1.50264,2.1183 3.3392,4.13442 6.46925,7.10173 7.97278,9.10265 7.63636,10.16261 -0.0903,0.28455 -0.46422,0.87392 -0.8309,1.30969 -0.934,1.11 -2.4405,1.10343 -4.13359,-0.018 -0.67287,-0.4457 -3.34709,-3.00554 -5.94271,-5.68854 -3.75006,-3.87632 -4.86114,-4.8782 -5.40985,-4.8782 -1.01988,0 -3.09245,1.52428 -8.01166,5.8922 -2.42058,2.1493 -4.84143,4.19512 -5.37968,4.54627 -1.45962,0.95225 -2.61382,1.06594 -3.95736,0.38981 z"
       style="fill:#f0e5da;fill-opacity:1"
       id="path1-8" /><path
       d="m 61.985045,172.18699 c -0.459053,-0.19972 -0.928547,-0.64154 -1.04332,-0.98183 -0.114773,-0.34029 -0.178023,-7.18863 -0.140557,-15.21853 0.06472,-13.87163 0.04418,-14.61233 -0.411889,-14.8504 -0.264004,-0.13781 -2.92079,-0.30482 -5.903967,-0.37114 -4.47955,-0.0996 -5.596716,-0.2026 -6.416146,-0.59173 -0.842779,-0.4002 -0.992187,-0.59912 -0.992187,-1.32093 0,-0.56152 0.221629,-1.05798 0.653378,-1.46359 0.964981,-0.90655 3.126757,-1.03024 18.338974,-1.04928 14.733741,-0.0184 14.926367,8.9e-4 15.262392,1.5308 0.223754,1.01875 -0.177728,1.76977 -1.239633,2.31891 -0.678723,0.35098 -2.020291,0.45827 -7.135907,0.57067 l -6.300037,0.13843 -0.02711,1.3503 c -0.01491,0.74266 -0.112447,7.42248 -0.21675,14.84404 -0.124676,8.87113 -0.290197,13.73188 -0.483167,14.18888 -0.29666,0.70257 -1.487101,1.29876 -2.553604,1.27889 -0.305707,-0.006 -0.93142,-0.17377 -1.390473,-0.37349 z"
       style="fill:#ae644d;fill-opacity:1"
       id="path1-4" /><path
       style="fill:#f0e5da;fill-opacity:1;stroke:#000000;stroke-width:0;stroke-linecap:square;stroke-linejoin:round;stroke-dasharray:none"
       d="m 71.831537,156.22087 c 0,0 2.557135,12.03776 15.346918,12.27576 12.789776,0.23799 15.272425,-10.85415 15.051295,-12.86123 -0.22112,-2.00707 -7.252231,0.33891 -7.252231,0.33891 0,0 -0.621027,7.41008 -7.060026,7.30086 -6.438996,-0.10918 -8.275206,-4.0569 -9.138391,-6.8708 -0.863189,-2.81391 -6.947565,-0.1835 -6.947565,-0.1835 z"
       id="path1" /></g></svg>
